<svg width="16" height="16" viewBox="0 0 16 16" fill="none" xmlns="http://www.w3.org/2000/svg">
<rect width="16" height="16" fill="#F2F2F2"/>
<rect width="1920" height="5038" transform="translate(-1349 -2812)" fill="white"/>
<g clip-path="url(#clip0_0_1)">
<rect x="-74" y="-17" width="270" height="50" rx="3" fill="#232323"/>
<g clip-path="url(#clip1_0_1)">
<path fill-rule="evenodd" clip-rule="evenodd" d="M5 0H11C13.761 0 16 2.239 16 5V11C16 13.761 13.761 16 11 16H5C2.239 16 0 13.761 0 11V5C0 2.239 2.239 0 5 0ZM11 14.5C12.93 14.5 14.5 12.93 14.5 11V5C14.5 3.07 12.93 1.5 11 1.5H5C3.07 1.5 1.5 3.07 1.5 5V11C1.5 12.93 3.07 14.5 5 14.5H11ZM4 8C4 5.791 5.791 4 8 4C10.209 4 12 5.791 12 8C12 10.209 10.209 12 8 12C5.791 12 4 10.209 4 8ZM5.5 8C5.5 9.378 6.622 10.5 8 10.5C9.378 10.5 10.5 9.378 10.5 8C10.5 6.621 9.378 5.5 8 5.5C6.622 5.5 5.5 6.621 5.5 8ZM13.3333 3.66667C13.3333 4.21895 12.8856 4.66667 12.3333 4.66667C11.781 4.66667 11.3333 4.21895 11.3333 3.66667C11.3333 3.11438 11.781 2.66667 12.3333 2.66667C12.8856 2.66667 13.3333 3.11438 13.3333 3.66667Z" fill="white"/>
</g>
</g>
<defs>
<clipPath id="clip0_0_1">
<rect width="270" height="516" fill="white" transform="translate(-74 -483)"/>
</clipPath>
<clipPath id="clip1_0_1">
<rect width="119" height="17" fill="white"/>
</clipPath>
</defs>
</svg>
